# xmcd
#
# Track frame offsets:
#	150
#	18525
#	35250
#	47700
#	62700
#	79050
#	90825
#	103050
#	116025
#	130425
#	145800
#	164700
#	179025
#	190050
#	205275
#	221700
#	238200
#	252600
#	267150
#	278100
#	292500
#
# Disc length: 4153 seconds
#
# Revision: 792477302
# Processed by: cddbd v1.5.2PL0 Copyright (c) Steve Scherf et al.
# Submitted via: EZCDAudioConverter 9.0.3.1
#
DISCID=40103715
DTITLE=Věra Martinová - Jako dřív (Zlatá kolekce)
DYEAR=2016
DGENRE=Country
TTITLE0=Ó, Pane náš
TTITLE1=Toulavý džíny
TTITLE2=Nebe, peklo, ráj
TTITLE3=Až na vrcholky hor
TTITLE4=Pláčou tvoje modrý oči
TTITLE5=V sedle je mi líp
TTITLE6=Dala jsem lásku řekám
TTITLE7=Jak kdy
TTITLE8=Pojď se toulat oblohou
TTITLE9=Máš ho akorát
TTITLE10=Yamba damba
TTITLE11=Poslední rallye
TTITLE12=Studánka
TTITLE13=Zlato, nech mě
TTITLE14=Křídel se nezříkám
TTITLE15=Rodeo je jako svět
TTITLE16=Modrý sarafán
TTITLE17=Jen tak koukám
TTITLE18=Vypůjčená
TTITLE19=Batalión
TTITLE20=Ofélie
EXTD=
EXTT0=
EXTT1=
EXTT2=
EXTT3=
EXTT4=
EXTT5=
EXTT6=
EXTT7=
EXTT8=
EXTT9=
EXTT10=
EXTT11=
EXTT12=
EXTT13=
EXTT14=
EXTT15=
EXTT16=
EXTT17=
EXTT18=
EXTT19=
EXTT20=
PLAYORDER=
